<?xml version="1.0" standalone="no"?>
<!DOCTYPE svg PUBLIC "-//W3C//DTD SVG 20010904//EN"
 "http://www.w3.org/TR/2001/REC-SVG-20010904/DTD/svg10.dtd">
<svg version="1.0" xmlns="http://www.w3.org/2000/svg"
 width="15mm" height="15mm" viewBox="0 0 1024.000000 1024.000000"
 preserveAspectRatio="xMidYMid meet">

<g transform="translate(0.000000,1024.000000) scale(0.100000,-0.100000)"
fill="#000000" stroke="none">
<path d="M7 10233 c-4 -3 -7 -2307 -7 -5120 l0 -5113 5120 0 5120 0 0 5120 0
5120 -5113 0 c-2813 0 -5117 -3 -5120 -7z m5163 -2532 c160 -18 382 -66 510
-109 378 -127 642 -292 925 -576 357 -359 563 -777 641 -1298 24 -164 29 -479
10 -626 -54 -405 -170 -726 -373 -1030 -327 -489 -771 -812 -1308 -952 -268
-69 -454 -82 -1172 -78 l-571 3 116 120 c65 67 193 200 286 297 l169 176 346
5 c360 5 439 13 609 58 330 88 558 212 757 413 202 203 254 273 371 501 59
114 127 312 151 435 27 148 25 486 -5 642 -141 742 -725 1287 -1497 1399 -48
7 -284 13 -592 16 l-513 5 0 -1647 0 -1648 -217 -224 c-120 -124 -257 -266
-305 -317 l-87 -91 -1 2270 0 2270 823 -1 c569 -1 854 -5 927 -13z"/>
</g>
</svg>
